<svg enable-background="new 0 0 1683.8 1190.6" viewBox="0 0 1683.8 1190.6" xmlns="http://www.w3.org/2000/svg"><g fill="none" stroke="#000" stroke-width=".7087"><g stroke-linecap="round" stroke-linejoin="round"><path d="m454.2 793.2c-4.7 0-8.5 3.8-8.5 8.5" stroke-miterlimit="10"/><path d="m392.2 801.7c0-4.7-3.8-8.5-8.5-8.5" stroke-miterlimit="10"/><path d="m454.2 793.2h312.4" stroke-miterlimit="10"/><path d="m71 793.2h312.7" stroke-miterlimit="10"/><path d="m445.7 801.7v262" stroke-miterlimit="10"/><path d="m392.2 1063.7v-262" stroke-miterlimit="10"/><path d="m445.7 1063.7h-53.6" stroke-miterlimit="10"/><path d="m475.8 809.9v.5l.1.5.1.5.2.5.2.5.3.4.4.4.4.3.4.3.5.2.5.2.5.1h.5.5l.5-.1.5-.2.5-.2.5-.3.4-.3.4-.4.3-.4.3-.5.2-.5.1-.5.1-.5v-.5l-.1-.5-.1-.5-.2-.5-.3-.5-.3-.4-.4-.4-.4-.3-.4-.3-.5-.2-.5-.2-.5-.1h-.5-.5l-.5.1-.5.2-.5.2-.5.3-.4.3-.4.4-.3.4-.3.5-.2.5-.1.5z" stroke-miterlimit="10"/><path d="m361.8 811 .1-.5" stroke-miterlimit="10"/><path d="m361.6 811.5.1-.5" stroke-miterlimit="10"/><path d="m361.5 812 .2-.5" stroke-miterlimit="10"/><path d="m361.2 812.4.2-.5" stroke-miterlimit="10"/><path d="m360.9 812.9.3-.4" stroke-miterlimit="10"/><path d="m360.5 813.3.4-.4" stroke-miterlimit="10"/><path d="m360.1 813.6.4-.3" stroke-miterlimit="10"/><path d="m359.7 813.9.4-.3" stroke-miterlimit="10"/><path d="m359.2 814.1.5-.2" stroke-miterlimit="10"/><path d="m358.7 814.3.5-.2" stroke-miterlimit="10"/><path d="m358.2 814.4.5-.1" stroke-miterlimit="10"/><path d="m357.6 814.5h.5" stroke-miterlimit="10"/><path d="m357.1 814.4h.5" stroke-miterlimit="10"/><path d="m356.6 814.4.5.1" stroke-miterlimit="10"/><path d="m356.1 814.2.5.2" stroke-miterlimit="10"/><path d="m355.6 814 .5.2" stroke-miterlimit="10"/><path d="m355.1 813.7.5.3" stroke-miterlimit="10"/><path d="m354.7 813.4.4.3" stroke-miterlimit="10"/><path d="m354.3 813 .4.4" stroke-miterlimit="10"/><path d="m354 812.5.3.4" stroke-miterlimit="10"/><path d="m353.8 812.1.3.5" stroke-miterlimit="10"/><path d="m353.6 811.6.2.5" stroke-miterlimit="10"/><path d="m353.4 811.1.1.5" stroke-miterlimit="10"/><path d="m353.3 810.5.1.5" stroke-miterlimit="10"/><path d="m353.3 810v.5" stroke-miterlimit="10"/><path d="m353.4 809.5-.1.5" stroke-miterlimit="10"/><path d="m353.5 809-.1.5" stroke-miterlimit="10"/><path d="m353.7 808.5-.2.5" stroke-miterlimit="10"/><path d="m354 808-.3.5" stroke-miterlimit="10"/><path d="m354.3 807.6-.3.4" stroke-miterlimit="10"/><path d="m354.6 807.2-.4.4" stroke-miterlimit="10"/><path d="m355 806.8-.4.3" stroke-miterlimit="10"/><path d="m355.5 806.5-.4.3" stroke-miterlimit="10"/><path d="m356 806.3-.5.2" stroke-miterlimit="10"/><path d="m356.5 806.1-.5.2" stroke-miterlimit="10"/><path d="m357 806-.5.1" stroke-miterlimit="10"/><path d="m357.5 806h-.5" stroke-miterlimit="10"/><path d="m358.1 806h-.5" stroke-miterlimit="10"/><path d="m358.6 806.1-.5-.1" stroke-miterlimit="10"/><path d="m359.1 806.2-.5-.2" stroke-miterlimit="10"/><path d="m359.6 806.5-.5-.2" stroke-miterlimit="10"/><path d="m360 806.7-.5-.3" stroke-miterlimit="10"/><path d="m360.5 807.1-.4-.3" stroke-miterlimit="10"/><path d="m360.8 807.5-.4-.4" stroke-miterlimit="10"/><path d="m361.1 807.9-.3-.4" stroke-miterlimit="10"/><path d="m361.4 808.4-.3-.5" stroke-miterlimit="10"/><path d="m361.6 808.8-.2-.5" stroke-miterlimit="10"/><path d="m361.7 809.4-.1-.5" stroke-miterlimit="10"/><path d="m361.8 809.9-.1-.5" stroke-miterlimit="10"/><path d="m361.8 810.4v-.5" stroke-miterlimit="10"/><path d="m480 1167.5h-.5" stroke-miterlimit="10"/><path d="m480.5 1167.5h-.5" stroke-miterlimit="10"/><path d="m481 1167.4-.5.1" stroke-miterlimit="10"/><path d="m481.5 1167.2-.5.2" stroke-miterlimit="10"/><path d="m482 1167-.5.2" stroke-miterlimit="10"/><path d="m482.5 1166.7-.5.3" stroke-miterlimit="10"/><path d="m482.9 1166.4-.4.3" stroke-miterlimit="10"/><path d="m483.3 1166-.4.4" stroke-miterlimit="10"/><path d="m483.6 1165.6-.3.4" stroke-miterlimit="10"/><path d="m483.9 1165.1-.3.5" stroke-miterlimit="10"/><path d="m484.1 1164.6-.2.5" stroke-miterlimit="10"/><path d="m484.2 1164.1-.1.5" stroke-miterlimit="10"/><path d="m484.3 1163.6-.1.5" stroke-miterlimit="10"/><path d="m484.3 1163.1v.5" stroke-miterlimit="10"/><path d="m484.2 1162.5.1.5" stroke-miterlimit="10"/><path d="m484.1 1162 .1.5" stroke-miterlimit="10"/><path d="m483.9 1161.5.2.5" stroke-miterlimit="10"/><path d="m483.7 1161 .3.5" stroke-miterlimit="10"/><path d="m483.4 1160.6.3.4" stroke-miterlimit="10"/><path d="m483 1160.2.4.4" stroke-miterlimit="10"/><path d="m482.6 1159.9.4.3" stroke-miterlimit="10"/><path d="m482.1 1159.6.4.3" stroke-miterlimit="10"/><path d="m481.7 1159.3.5.2" stroke-miterlimit="10"/><path d="m481.2 1159.2.5.2" stroke-miterlimit="10"/><path d="m480.6 1159.1.5.1" stroke-miterlimit="10"/><path d="m480.1 1159h.5" stroke-miterlimit="10"/><path d="m479.6 1159h.5" stroke-miterlimit="10"/><path d="m479 1159.1.5-.1" stroke-miterlimit="10"/><path d="m478.5 1159.3.5-.2" stroke-miterlimit="10"/><path d="m478 1159.5.5-.2" stroke-miterlimit="10"/><path d="m477.6 1159.8.5-.3" stroke-miterlimit="10"/><path d="m477.2 1160.1.4-.3" stroke-miterlimit="10"/><path d="m476.8 1160.5.4-.4" stroke-miterlimit="10"/><path d="m476.5 1160.9.3-.4" stroke-miterlimit="10"/><path d="m476.2 1161.4.3-.5" stroke-miterlimit="10"/><path d="m476 1161.9.2-.5" stroke-miterlimit="10"/><path d="m475.9 1162.4.1-.5" stroke-miterlimit="10"/><path d="m475.8 1162.9.1-.5" stroke-miterlimit="10"/><path d="m475.8 1163.5v-.5" stroke-miterlimit="10"/><path d="m475.9 1164-.1-.5" stroke-miterlimit="10"/><path d="m476 1164.5-.1-.5" stroke-miterlimit="10"/><path d="m476.2 1165-.2-.5" stroke-miterlimit="10"/><path d="m476.4 1165.5-.2-.5" stroke-miterlimit="10"/><path d="m476.7 1165.9-.3-.4" stroke-miterlimit="10"/><path d="m477.1 1166.3-.4-.4" stroke-miterlimit="10"/><path d="m477.5 1166.7-.4-.3" stroke-miterlimit="10"/><path d="m477.9 1167-.4-.3" stroke-miterlimit="10"/><path d="m478.4 1167.2-.5-.2" stroke-miterlimit="10"/><path d="m478.9 1167.4-.5-.2" stroke-miterlimit="10"/><path d="m479.4 1167.5-.5-.1" stroke-miterlimit="10"/><path d="m361.8 1164 .1-.5" stroke-miterlimit="10"/><path d="m361.6 1164.5.1-.5" stroke-miterlimit="10"/><path d="m361.5 1165 .2-.5" stroke-miterlimit="10"/><path d="m361.2 1165.5.2-.5" stroke-miterlimit="10"/><path d="m360.9 1165.9.3-.4" stroke-miterlimit="10"/><path d="m360.5 1166.3.4-.4" stroke-miterlimit="10"/><path d="m360.1 1166.7.4-.3" stroke-miterlimit="10"/><path d="m359.7 1167 .4-.3" stroke-miterlimit="10"/><path d="m359.2 1167.2.5-.2" stroke-miterlimit="10"/><path d="m358.7 1167.4.5-.2" stroke-miterlimit="10"/><path d="m358.2 1167.5.5-.1" stroke-miterlimit="10"/><path d="m357.6 1167.5h.5" stroke-miterlimit="10"/><path d="m357.1 1167.5h.5" stroke-miterlimit="10"/><path d="m356.6 1167.4.5.1" stroke-miterlimit="10"/><path d="m356.1 1167.2.5.2" stroke-miterlimit="10"/><path d="m355.6 1167 .5.2" stroke-miterlimit="10"/><path d="m355.1 1166.7.5.3" stroke-miterlimit="10"/><path d="m354.7 1166.4.4.3" stroke-miterlimit="10"/><path d="m354.3 1166 .4.4" stroke-miterlimit="10"/><path d="m354 1165.6.3.4" stroke-miterlimit="10"/><path d="m353.8 1165.1.3.5" stroke-miterlimit="10"/><path d="m353.6 1164.6.2.5" stroke-miterlimit="10"/><path d="m353.4 1164.1.1.5" stroke-miterlimit="10"/><path d="m353.3 1163.6.1.5" stroke-miterlimit="10"/><path d="m353.3 1163.1v.5" stroke-miterlimit="10"/><path d="m353.4 1162.5-.1.5" stroke-miterlimit="10"/><path d="m353.5 1162-.1.5" stroke-miterlimit="10"/><path d="m353.7 1161.5-.2.5" stroke-miterlimit="10"/><path d="m354 1161-.3.5" stroke-miterlimit="10"/><path d="m354.3 1160.6-.3.4" stroke-miterlimit="10"/><path d="m354.6 1160.2-.4.4" stroke-miterlimit="10"/><path d="m355 1159.9-.4.3" stroke-miterlimit="10"/><path d="m355.5 1159.6-.4.3" stroke-miterlimit="10"/><path d="m356 1159.3-.5.2" stroke-miterlimit="10"/><path d="m356.5 1159.2-.5.2" stroke-miterlimit="10"/><path d="m357 1159.1-.5.1" stroke-miterlimit="10"/><path d="m357.5 1159h-.5" stroke-miterlimit="10"/><path d="m358.1 1159h-.5" stroke-miterlimit="10"/><path d="m358.6 1159.1-.5-.1" stroke-miterlimit="10"/><path d="m359.1 1159.3-.5-.2" stroke-miterlimit="10"/><path d="m359.6 1159.5-.5-.2" stroke-miterlimit="10"/><path d="m360 1159.8-.5-.3" stroke-miterlimit="10"/><path d="m360.5 1160.1-.4-.3" stroke-miterlimit="10"/><path d="m360.8 1160.5-.4-.4" stroke-miterlimit="10"/><path d="m361.1 1160.9-.3-.4" stroke-miterlimit="10"/><path d="m361.4 1161.4-.3-.5" stroke-miterlimit="10"/><path d="m361.6 1161.9-.2-.5" stroke-miterlimit="10"/><path d="m361.7 1162.4-.1-.5" stroke-miterlimit="10"/><path d="m361.8 1162.9-.1-.5" stroke-miterlimit="10"/><path d="m361.8 1163.5v-.5" stroke-miterlimit="10"/><path d="m21 1099.5h-.5" stroke-miterlimit="10"/><path d="m21.6 1099.5h-.5" stroke-miterlimit="10"/><path d="m22.1 1099.4-.5.1" stroke-miterlimit="10"/><path d="m22.6 1099.2-.5.2" stroke-miterlimit="10"/><path d="m23.1 1099-.5.2" stroke-miterlimit="10"/><path d="m23.5 1098.7-.4.3" stroke-miterlimit="10"/><path d="m23.9 1098.3-.4.3" stroke-miterlimit="10"/><path d="m24.3 1097.9-.4.4" stroke-miterlimit="10"/><path d="m24.6 1097.5-.3.4" stroke-miterlimit="10"/><path d="m24.8 1097-.2.5" stroke-miterlimit="10"/><path d="m25 1096.5-.2.5" stroke-miterlimit="10"/><path d="m25.1 1096-.1.5" stroke-miterlimit="10"/><path d="m25.2 1095.5-.1.5" stroke-miterlimit="10"/><path d="m25.2 1095v.5" stroke-miterlimit="10"/><path d="m25.1 1094.4.1.5" stroke-miterlimit="10"/><path d="m25 1093.9.1.5" stroke-miterlimit="10"/><path d="m24.8 1093.4.2.5" stroke-miterlimit="10"/><path d="m24.5 1092.9.3.5" stroke-miterlimit="10"/><path d="m24.2 1092.5.3.4" stroke-miterlimit="10"/><path d="m23.8 1092.1.4.4" stroke-miterlimit="10"/><path d="m23.4 1091.8.4.3" stroke-miterlimit="10"/><path d="m23 1091.5.5.3" stroke-miterlimit="10"/><path d="m22.5 1091.3.5.2" stroke-miterlimit="10"/><path d="m22 1091.1.5.2" stroke-miterlimit="10"/><path d="m21.4 1091.1.5.1" stroke-miterlimit="10"/><path d="m20.9 1091h.5" stroke-miterlimit="10"/><path d="m20.4 1091.1h.5" stroke-miterlimit="10"/><path d="m19.8 1091.2.5-.1" stroke-miterlimit="10"/><path d="m19.3 1091.3.5-.2" stroke-miterlimit="10"/><path d="m18.9 1091.6.5-.2" stroke-miterlimit="10"/><path d="m18.4 1091.9.4-.3" stroke-miterlimit="10"/><path d="m18 1092.2.4-.3" stroke-miterlimit="10"/><path d="m17.6 1092.6.4-.4" stroke-miterlimit="10"/><path d="m17.3 1093 .3-.4" stroke-miterlimit="10"/><path d="m17.1 1093.5.3-.5" stroke-miterlimit="10"/><path d="m16.9 1094 .2-.5" stroke-miterlimit="10"/><path d="m16.8 1094.5.1-.5" stroke-miterlimit="10"/><path d="m16.7 1095.1.1-.5" stroke-miterlimit="10"/><path d="m16.7 1095.6v-.5" stroke-miterlimit="10"/><path d="m16.8 1096.1-.1-.5" stroke-miterlimit="10"/><path d="m16.9 1096.6-.1-.5" stroke-miterlimit="10"/><path d="m17.1 1097.1-.2-.5" stroke-miterlimit="10"/><path d="m17.4 1097.6-.3-.5" stroke-miterlimit="10"/><path d="m17.7 1098-.3-.4" stroke-miterlimit="10"/><path d="m18.1 1098.4-.4-.4" stroke-miterlimit="10"/><path d="m18.5 1098.8-.4-.3" stroke-miterlimit="10"/><path d="m19 1099-.5-.3" stroke-miterlimit="10"/><path d="m19.4 1099.3-.4-.3" stroke-miterlimit="10"/><path d="m20 1099.4-.5-.2" stroke-miterlimit="10"/><path d="m20.5 1099.5-.5-.1" stroke-miterlimit="10"/><path d="m816.6 1099.5h-.5" stroke-miterlimit="10"/><path d="m817.1 1099.5h-.5" stroke-miterlimit="10"/><path d="m817.7 1099.4-.5.1" stroke-miterlimit="10"/><path d="m818.2 1099.3-.5.2" stroke-miterlimit="10"/><path d="m818.7 1099-.5.2" stroke-miterlimit="10"/><path d="m819.1 1098.8-.5.3" stroke-miterlimit="10"/><path d="m819.5 1098.4-.4.3" stroke-miterlimit="10"/><path d="m819.9 1098-.4.4" stroke-miterlimit="10"/><path d="m820.2 1097.6-.3.4" stroke-miterlimit="10"/><path d="m820.5 1097.1-.3.5" stroke-miterlimit="10"/><path d="m820.7 1096.6-.2.5" stroke-miterlimit="10"/><path d="m820.8 1096.1-.1.5" stroke-miterlimit="10"/><path d="m820.9 1095.6-.1.5" stroke-miterlimit="10"/><path d="m820.9 1095.1v.5" stroke-miterlimit="10"/><path d="m820.8 1094.5.1.5" stroke-miterlimit="10"/><path d="m820.7 1094 .1.5" stroke-miterlimit="10"/><path d="m820.5 1093.5.2.5" stroke-miterlimit="10"/><path d="m820.3 1093 .3.5" stroke-miterlimit="10"/><path d="m820 1092.6.3.4" stroke-miterlimit="10"/><path d="m819.6 1092.2.4.4" stroke-miterlimit="10"/><path d="m819.2 1091.9.4.3" stroke-miterlimit="10"/><path d="m818.8 1091.6.4.3" stroke-miterlimit="10"/><path d="m818.3 1091.3.5.2" stroke-miterlimit="10"/><path d="m817.8 1091.2.5.2" stroke-miterlimit="10"/><path d="m817.3 1091.1.5.1" stroke-miterlimit="10"/><path d="m816.7 1091h.5" stroke-miterlimit="10"/><path d="m816.2 1091.1h.5" stroke-miterlimit="10"/><path d="m815.7 1091.1.5-.1" stroke-miterlimit="10"/><path d="m815.2 1091.3.5-.2" stroke-miterlimit="10"/><path d="m814.7 1091.5.5-.2" stroke-miterlimit="10"/><path d="m814.2 1091.8.5-.3" stroke-miterlimit="10"/><path d="m813.8 1092.1.4-.3" stroke-miterlimit="10"/><path d="m813.4 1092.5.4-.4" stroke-miterlimit="10"/><path d="m813.1 1092.9.3-.4" stroke-miterlimit="10"/><path d="m812.8 1093.4.3-.5" stroke-miterlimit="10"/><path d="m812.6 1093.9.2-.5" stroke-miterlimit="10"/><path d="m812.5 1094.4.1-.5" stroke-miterlimit="10"/><path d="m812.4 1095 .1-.5" stroke-miterlimit="10"/><path d="m812.4 1095.5v-.5" stroke-miterlimit="10"/><path d="m812.5 1096-.1-.5" stroke-miterlimit="10"/><path d="m812.6 1096.5-.1-.5" stroke-miterlimit="10"/><path d="m812.8 1097-.2-.5" stroke-miterlimit="10"/><path d="m813 1097.5-.2-.5" stroke-miterlimit="10"/><path d="m813.3 1097.9-.3-.4" stroke-miterlimit="10"/><path d="m813.7 1098.3-.4-.4" stroke-miterlimit="10"/><path d="m814.1 1098.7-.4-.3" stroke-miterlimit="10"/><path d="m814.6 1099-.4-.3" stroke-miterlimit="10"/><path d="m815 1099.2-.5-.2" stroke-miterlimit="10"/><path d="m815.5 1099.4-.5-.2" stroke-miterlimit="10"/><path d="m816.1 1099.5-.5-.1" stroke-miterlimit="10"/><path d="m71.3 814.5h-.5" stroke-miterlimit="10"/><path d="m71.8 814.4h-.5" stroke-miterlimit="10"/><path d="m72.3 814.3-.5.1" stroke-miterlimit="10"/><path d="m72.8 814.2-.5.2" stroke-miterlimit="10"/><path d="m73.3 813.9-.5.2" stroke-miterlimit="10"/><path d="m73.8 813.6-.4.3" stroke-miterlimit="10"/><path d="m74.2 813.3-.4.3" stroke-miterlimit="10"/><path d="m74.5 812.9-.4.4" stroke-miterlimit="10"/><path d="m74.8 812.4-.3.4" stroke-miterlimit="10"/><path d="m75.1 812-.2.5" stroke-miterlimit="10"/><path d="m75.3 811.5-.2.5" stroke-miterlimit="10"/><path d="m75.4 811-.1.5" stroke-miterlimit="10"/><path d="m75.5 810.4-.1.5" stroke-miterlimit="10"/><path d="m75.5 809.9v.5" stroke-miterlimit="10"/><path d="m75.4 809.4.1.5" stroke-miterlimit="10"/><path d="m75.2 808.8.1.5" stroke-miterlimit="10"/><path d="m75 808.4.2.5" stroke-miterlimit="10"/><path d="m74.8 807.9.3.5" stroke-miterlimit="10"/><path d="m74.5 807.5.3.4" stroke-miterlimit="10"/><path d="m74.1 807.1.4.4" stroke-miterlimit="10"/><path d="m73.7 806.7.4.3" stroke-miterlimit="10"/><path d="m73.2 806.5.5.3" stroke-miterlimit="10"/><path d="m72.7 806.2.5.2" stroke-miterlimit="10"/><path d="m72.2 806.1.5.2" stroke-miterlimit="10"/><path d="m71.7 806 .5.1" stroke-miterlimit="10"/><path d="m71.2 806h.5" stroke-miterlimit="10"/><path d="m70.6 806h.5" stroke-miterlimit="10"/><path d="m70.1 806.1.5-.1" stroke-miterlimit="10"/><path d="m69.6 806.3.5-.2" stroke-miterlimit="10"/><path d="m69.1 806.5.5-.2" stroke-miterlimit="10"/><path d="m68.7 806.8.4-.3" stroke-miterlimit="10"/><path d="m68.3 807.2.4-.3" stroke-miterlimit="10"/><path d="m67.9 807.6.4-.4" stroke-miterlimit="10"/><path d="m67.6 808 .3-.4" stroke-miterlimit="10"/><path d="m67.4 808.5.2-.5" stroke-miterlimit="10"/><path d="m67.2 809 .2-.5" stroke-miterlimit="10"/><path d="m67 809.5.1-.5" stroke-miterlimit="10"/><path d="m67 810 .1-.5" stroke-miterlimit="10"/><path d="m67 810.5v-.5" stroke-miterlimit="10"/><path d="m67.1 811.1-.1-.5" stroke-miterlimit="10"/><path d="m67.2 811.6-.1-.5" stroke-miterlimit="10"/><path d="m67.4 812.1-.2-.5" stroke-miterlimit="10"/><path d="m67.7 812.5-.3-.5" stroke-miterlimit="10"/><path d="m68 813-.3-.4" stroke-miterlimit="10"/><path d="m68.4 813.4-.4-.4" stroke-miterlimit="10"/><path d="m68.8 813.7-.4-.3" stroke-miterlimit="10"/><path d="m69.2 814-.5-.3" stroke-miterlimit="10"/><path d="m69.7 814.2-.5-.2" stroke-miterlimit="10"/><path d="m70.2 814.4-.5-.2" stroke-miterlimit="10"/><path d="m70.7 814.4-.5-.1" stroke-miterlimit="10"/><path d="m766.3 814.5h-.5" stroke-miterlimit="10"/><path d="m766.9 814.4h-.5" stroke-miterlimit="10"/><path d="m767.4 814.4-.5.1" stroke-miterlimit="10"/><path d="m767.9 814.2-.5.2" stroke-miterlimit="10"/><path d="m768.4 814-.5.2" stroke-miterlimit="10"/><path d="m768.8 813.7-.5.3" stroke-miterlimit="10"/><path d="m769.3 813.4-.4.3" stroke-miterlimit="10"/><path d="m769.6 813-.4.4" stroke-miterlimit="10"/><path d="m770 812.5-.3.4" stroke-miterlimit="10"/><path d="m770.2 812.1-.3.5" stroke-miterlimit="10"/><path d="m770.4 811.6-.2.5" stroke-miterlimit="10"/><path d="m770.6 811.1-.1.5" stroke-miterlimit="10"/><path d="m770.6 810.5-.1.5" stroke-miterlimit="10"/><path d="m770.6 810v.5" stroke-miterlimit="10"/><path d="m770.6 809.5.1.5" stroke-miterlimit="10"/><path d="m770.5 809 .1.5" stroke-miterlimit="10"/><path d="m770.3 808.5.2.5" stroke-miterlimit="10"/><path d="m770 808 .2.5" stroke-miterlimit="10"/><path d="m769.7 807.6.3.4" stroke-miterlimit="10"/><path d="m769.4 807.2.4.4" stroke-miterlimit="10"/><path d="m768.9 806.8.4.3" stroke-miterlimit="10"/><path d="m768.5 806.5.4.3" stroke-miterlimit="10"/><path d="m768 806.3.5.2" stroke-miterlimit="10"/><path d="m767.5 806.1.5.2" stroke-miterlimit="10"/><path d="m767 806 .5.1" stroke-miterlimit="10"/><path d="m766.5 806h.5" stroke-miterlimit="10"/><path d="m765.9 806h.5" stroke-miterlimit="10"/><path d="m765.4 806.1.5-.1" stroke-miterlimit="10"/><path d="m764.9 806.2.5-.2" stroke-miterlimit="10"/><path d="m764.4 806.5.5-.2" stroke-miterlimit="10"/><path d="m763.9 806.7.5-.3" stroke-miterlimit="10"/><path d="m763.5 807.1.4-.3" stroke-miterlimit="10"/><path d="m763.2 807.5.4-.4" stroke-miterlimit="10"/><path d="m762.8 807.9.3-.4" stroke-miterlimit="10"/><path d="m762.6 808.4.3-.5" stroke-miterlimit="10"/><path d="m762.4 808.8.2-.5" stroke-miterlimit="10"/><path d="m762.2 809.4.1-.5" stroke-miterlimit="10"/><path d="m762.2 809.9.1-.5" stroke-miterlimit="10"/><path d="m762.2 810.4v-.5" stroke-miterlimit="10"/><path d="m762.2 811-.1-.5" stroke-miterlimit="10"/><path d="m762.3 811.5-.1-.5" stroke-miterlimit="10"/><path d="m762.5 812-.2-.5" stroke-miterlimit="10"/><path d="m762.8 812.4-.2-.5" stroke-miterlimit="10"/><path d="m763.1 812.9-.3-.4" stroke-miterlimit="10"/><path d="m763.4 813.3-.4-.4" stroke-miterlimit="10"/><path d="m763.8 813.6-.4-.3" stroke-miterlimit="10"/><path d="m764.3 813.9-.4-.3" stroke-miterlimit="10"/><path d="m764.8 814.2-.5-.2" stroke-miterlimit="10"/><path d="m765.3 814.3-.5-.2" stroke-miterlimit="10"/><path d="m765.8 814.4-.5-.1" stroke-miterlimit="10"/><path d="m55 805.2-.5 2.1" stroke-miterlimit="10"/><path d="m55.7 803.2-.8 2" stroke-miterlimit="10"/><path d="m56.7 801.3-1 1.9" stroke-miterlimit="10"/><path d="m58 799.6-1.2 1.7" stroke-miterlimit="10"/><path d="m59.4 798-1.4 1.6" stroke-miterlimit="10"/><path d="m61 796.6-1.6 1.4" stroke-miterlimit="10"/><path d="m62.8 795.4-1.8 1.2" stroke-miterlimit="10"/><path d="m64.7 794.5-1.9.9" stroke-miterlimit="10"/><path d="m66.8 793.8-2 .7" stroke-miterlimit="10"/><path d="m68.9 793.4-2.1.4" stroke-miterlimit="10"/><path d="m71 793.2-2.1.2" stroke-miterlimit="10"/><path d="m768.8 793.4-2.1-.2" stroke-miterlimit="10"/><path d="m770.9 793.8-2.1-.4" stroke-miterlimit="10"/><path d="m772.9 794.5-2-.7" stroke-miterlimit="10"/><path d="m774.8 795.4-1.9-.9" stroke-miterlimit="10"/><path d="m776.6 796.6-1.8-1.2" stroke-miterlimit="10"/><path d="m778.2 798-1.6-1.4" stroke-miterlimit="10"/><path d="m779.7 799.6-1.4-1.6" stroke-miterlimit="10"/><path d="m780.9 801.3-1.2-1.7" stroke-miterlimit="10"/><path d="m781.9 803.2-1-1.9" stroke-miterlimit="10"/><path d="m782.6 805.2-.8-2" stroke-miterlimit="10"/><path d="m783.1 807.3-.5-2.1" stroke-miterlimit="10"/><path d="m833.4 1092.3-50.3-285.1" stroke-miterlimit="10"/><path d="m833.6 1094.4-.2-2.1" stroke-miterlimit="10"/><path d="m833.6 1096.6v-2.1" stroke-miterlimit="10"/><path d="m833.3 1098.7.3-2.1" stroke-miterlimit="10"/><path d="m832.8 1100.8.6-2.1" stroke-miterlimit="10"/><path d="m831.9 1102.7.8-2" stroke-miterlimit="10"/><path d="m830.9 1104.6 1.1-1.9" stroke-miterlimit="10"/><path d="m829.6 1106.3 1.3-1.7" stroke-miterlimit="10"/><path d="m828.1 1107.8 1.5-1.5" stroke-miterlimit="10"/><path d="m826.5 1109.2 1.7-1.3" stroke-miterlimit="10"/><path d="m824.6 1110.3 1.8-1.1" stroke-miterlimit="10"/><path d="m822.7 1111.2 1.9-.9" stroke-miterlimit="10"/><path d="m820.7 1111.8 2-.6" stroke-miterlimit="10"/><path d="m54.5 807.3s-50.3 285.1-50.3 285.1-.2 2.1-.2 2.1v2.1l.3 2.1.6 2.1s.8 2 .8 2 1.1 1.9 1.1 1.9l1.3 1.7s1.5 1.5 1.5 1.5l1.7 1.3 1.8 1.1 1.9.9 2 .6 336.6 68 2.1.4s2.1.1 2.1.1h122l2.1-.1s2.1-.4 2.1-.4l336.6-68" stroke-miterlimit="10"/></g><g stroke-miterlimit="3.2" transform="matrix(0 -1 1 0 -147.26558 1900.8937)"><path d="m1112.2 629.3.4 2.1"/><path d="m1180.5 968.1.6 2"/><path d="m1181.1 970.1.9 1.9"/><path d="m1182 972.1 1.1 1.8"/><path d="m1183.1 973.9 1.3 1.7"/><path d="m1184.5 975.5 1.5 1.5"/><path d="m1186 977 1.7 1.3"/><path d="m1187.7 978.3 1.9 1.1"/><path d="m1189.6 979.4 2 .8"/><path d="m1191.6 980.2 2.1.6"/><path d="m1193.6 980.7 2.1.3"/><path d="m1195.7 981h2.1"/><path d="m1197.9 981.1 2.1-.2"/><path d="m1200 980.8 285.1-50.3"/><path d="m1485.1 930.6 2.1-.5"/><path d="m1487.1 930.1 2-.8"/><path d="m1489.1 929.3 1.9-1"/><path d="m1491 928.3 1.7-1.2"/><path d="m1492.8 927.1 1.6-1.4"/><path d="m1494.3 925.6 1.4-1.6"/><path d="m1495.7 924 1.2-1.8"/><path d="m1496.9 922.2.9-1.9"/><path d="m1497.8 920.3.7-2"/><path d="m1498.5 918.3.4-2.1"/><path d="m1498.9 916.2.2-2.1"/><path d="m1495.7 208.4-1.4-1.6"/><path d="m1112.5 501-.4 2.1"/><path d="m1112.2 503.1-.1 2.1"/><path d="m1112 627.2.1 2.1"/><path d="m1499.1 914 .1-320.9h-32.1v310.2l-259.6 45.8-55.1-263.7-8.4-47.5v-2.4l.8-1.6.7-2 .4-2.1.2-2.1-.1-2.2-.4-2.1-.6-2-.9-1.9-.1-.1v-106.3l.1-.1.9-2 .6-2 .4-2.1.1-2.1-.2-2.2-.4-2.1-.7-2-.8-1.5v-2.5l8.4-47.4 55.1-263.8 259.6 45.8v310.2h32.1l-.1-320.9-.2-2.1-.4-2.1-.7-2-.9-2-1.2-1.8-1.4-1.6-1.5-1.4-1.8-1.3-1.9-1-2-.7-2-.5-285.1-50.3-2.1-.2h-2.2l-2.1.3-2 .6-2 .8-1.9 1-1.7 1.3-1.5 1.5-1.4 1.7-1.1 1.8-.9 1.9-.6 2.1-68 336.6-.5 4.2v122l.5 4.2 68 336.7"/></g><circle cx="480.2" cy="418.7" r="6" stroke-miterlimit="10"/><circle cx="357.7" cy="418.7" r="6" stroke-miterlimit="10"/><circle cx="21.1" cy="703.8" r="6" stroke-miterlimit="10"/><circle cx="71.4" cy="418.7" r="6" stroke-miterlimit="10"/><circle cx="766.5" cy="418.7" r="6" stroke-miterlimit="10"/><circle cx="816.8" cy="703.8" r="6" stroke-miterlimit="10"/><circle cx="480.2" cy="771.8" r="6" stroke-miterlimit="10"/><circle cx="357.7" cy="771.8" r="6" stroke-miterlimit="10"/><g stroke-miterlimit="3.2" transform="matrix(0 -1 1 0 -147.26558 1900.8937)"><path d="m713.7 1472.5.4 2.1"/><path d="m782 1811.2.6 2"/><path d="m782.7 1813.2.9 1.9"/><path d="m783.5 1815.2 1.1 1.8"/><path d="m784.7 1817 1.3 1.7"/><path d="m786 1818.7 1.5 1.5"/><path d="m787.5 1820.2 1.7 1.3"/><path d="m789.2 1821.4 1.9 1.1"/><path d="m791.1 1822.5 2 .8"/><path d="m793.1 1823.3 2.1.6"/><path d="m795.1 1823.9 2.1.3"/><path d="m797.2 1824.2h2.1"/><path d="m799.4 1824.2 2.1-.2"/><path d="m801.5 1824 285.1-50.3"/><path d="m1086.6 1773.7 2.1-.5"/><path d="m1088.6 1773.2 2-.8"/><path d="m1090.6 1772.4 1.9-1"/><path d="m1092.5 1771.4 1.7-1.2"/><path d="m1094.3 1770.2 1.6-1.4"/><path d="m1095.8 1768.8 1.4-1.6"/><path d="m1097.2 1767.1 1.2-1.8"/><path d="m1098.4 1765.3.9-1.9"/><path d="m1099.3 1763.4.7-2"/><path d="m1100 1761.4.4-2.1"/><path d="m1100.5 1759.3.2-2.1"/><path d="m1097.2 1051.6-1.4-1.6"/><path d="m714 1344.1-.4 2.1"/><path d="m713.7 1346.2-.1 2.1"/><path d="m713.6 1470.3.1 2.1"/><path d="m1100.6 1757.2.1-320.9h-32.1v310.2l-259.6 45.7-55.1-263.7-8.4-47.4v-2.5l.8-1.5.7-2.1.4-2.1.2-2.1-.1-2.1-.4-2.1-.6-2.1-.9-1.9-.1-.1v-106.3l.1-.1.9-1.9.6-2.1.4-2.1.1-2.1-.2-2.1-.4-2.1-.7-2.1-.8-1.5v-2.5l8.4-47.4 55.1-263.7 259.6 45.7v310.2h32.1l-.1-320.9-.1-2.1-.5-2.1-.7-2-.9-1.9-1.2-1.8-1.4-1.7-1.5-1.4-1.8-1.2-1.9-1-2-.8-2-.5-285.1-50.3-2.1-.2h-2.2l-2.1.3-2 .6-2 .8-1.9 1.1-1.7 1.2-1.5 1.5-1.3 1.7-1.2 1.8-.8 2-.7 2-68 336.6-.4 4.3v121.9l.4 4.3 68 336.6"/></g><circle cx="1323.4" cy="817.2" r="6" stroke-miterlimit="10"/><circle cx="1200.8" cy="817.2" r="6" stroke-miterlimit="10"/><circle cx="864.2" cy="1102.3" r="6" stroke-miterlimit="10"/><circle cx="914.5" cy="817.2" r="6" stroke-miterlimit="10"/><circle cx="1609.7" cy="817.2" r="6" stroke-miterlimit="10"/><circle cx="1659.9" cy="1102.3" r="6" stroke-miterlimit="10"/><circle cx="1323.4" cy="1170.3" r="6" stroke-miterlimit="10"/><circle cx="1200.8" cy="1170.3" r="6" stroke-miterlimit="10"/><circle cx="1262.1" cy="667.5" r="6" stroke-miterlimit="10"/><g stroke-miterlimit="3.2" transform="matrix(0 -1 1 0 -147.26558 1900.8937)"><path d="m1112.2 1472.5.4 2.1"/><path d="m1180.5 1811.2.6 2"/><path d="m1181.1 1813.2.9 1.9"/><path d="m1182 1815.2 1.1 1.8"/><path d="m1183.1 1817 1.3 1.7"/><path d="m1184.5 1818.7 1.5 1.5"/><path d="m1186 1820.2 1.7 1.3"/><path d="m1187.7 1821.4 1.9 1.1"/><path d="m1189.6 1822.5 2 .8"/><path d="m1191.6 1823.3 2.1.6"/><path d="m1193.6 1823.9 2.1.3"/><path d="m1195.7 1824.2h2.1"/><path d="m1197.9 1824.2 2.1-.2"/><path d="m1200 1824 285.1-50.3"/><path d="m1485.1 1773.7 2.1-.5"/><path d="m1487.1 1773.2 2-.8"/><path d="m1489.1 1772.4 1.9-1"/><path d="m1491 1771.4 1.7-1.2"/><path d="m1492.8 1770.2 1.6-1.4"/><path d="m1494.3 1768.8 1.4-1.6"/><path d="m1495.7 1767.1 1.2-1.8"/><path d="m1496.9 1765.3.9-1.9"/><path d="m1497.8 1763.4.7-2"/><path d="m1498.5 1761.4.4-2.1"/><path d="m1498.9 1759.3.2-2.1"/><path d="m1495.7 1051.6-1.4-1.6"/><path d="m1112.5 1344.1-.4 2.1"/><path d="m1112.2 1346.2-.1 2.1"/><path d="m1112 1470.3.1 2.1"/><path d="m1499.1 1757.2.1-320.9v-53.9l-.1-320.9-.2-2.1-.4-2.1-.7-2-.9-1.9-1.2-1.8-1.4-1.7-1.5-1.4-1.8-1.2-1.9-1-2-.8-2-.5-285.1-50.3-2.1-.2h-2.2l-2.1.3-2 .6-2 .8-1.9 1.1-1.7 1.2-1.5 1.5-1.4 1.7-1.1 1.8-.9 2-.6 2-68 336.6-.5 4.3v121.9l.5 4.3 68 336.6"/></g><circle cx="1323.4" cy="418.7" r="6" stroke-miterlimit="10"/><circle cx="1200.8" cy="418.7" r="6" stroke-miterlimit="10"/><circle cx="864.2" cy="703.8" r="6" stroke-miterlimit="10"/><circle cx="914.5" cy="418.7" r="6" stroke-miterlimit="10"/><circle cx="1609.7" cy="418.7" r="6" stroke-miterlimit="10"/><circle cx="1659.9" cy="703.8" r="6" stroke-miterlimit="10"/><circle cx="1323.4" cy="771.8" r="6" stroke-miterlimit="10"/><circle cx="1200.8" cy="771.8" r="6" stroke-miterlimit="10"/><path d="m754 1045.5h39.3v39.3h-39.3z" stroke-linecap="round" stroke-linejoin="round" stroke-miterlimit="10" transform="matrix(.9848 -.1736 .1736 .9848 -173.2104 150.5293)"/><path d="m744.7 992.5h39.3v39.3h-39.3z" stroke-linecap="round" stroke-linejoin="round" stroke-miterlimit="10" transform="matrix(.9848 -.1736 .1736 .9848 -164.1421 148.0994)"/><path d="m735.3 939.4h39.3v39.3h-39.3z" stroke-linecap="round" stroke-linejoin="round" stroke-miterlimit="10" transform="matrix(.9848 -.1736 .1736 .9848 -155.054 145.6473)"/><path d="m726 886.4h39.3v39.3h-39.3z" stroke-linecap="round" stroke-linejoin="round" stroke-miterlimit="10" transform="matrix(.9848 -.1736 .1736 .9848 -146.0056 143.2398)"/><path d="m716.6 833.4h39.3v39.3h-39.3z" stroke-linecap="round" stroke-linejoin="round" stroke-miterlimit="10" transform="matrix(.9848 -.1736 .1736 .9848 -136.9374 140.81)"/><path d="m701 1054.9h39.3v39.3h-39.3z" stroke-linecap="round" stroke-linejoin="round" stroke-miterlimit="10" transform="matrix(.9848 -.1736 .1736 .9848 -175.6402 141.461)"/><path d="m691.6 1001.8h39.3v39.3h-39.3z" stroke-linecap="round" stroke-linejoin="round" stroke-miterlimit="10" transform="matrix(.9848 -.1736 .1736 .9848 -166.5719 139.0312)"/><path d="m682.3 948.8h39.3v39.3h-39.3z" stroke-linecap="round" stroke-linejoin="round" stroke-miterlimit="10" transform="matrix(.9848 -.1736 .1736 .9848 -157.4834 136.5803)"/><path d="m672.9 895.8h39.3v39.3h-39.3z" stroke-linecap="round" stroke-linejoin="round" stroke-miterlimit="10" transform="matrix(.9848 -.1736 .1736 .9848 -148.4355 134.1715)"/><path d="m663.6 842.7h39.3v39.3h-39.3z" stroke-linecap="round" stroke-linejoin="round" stroke-miterlimit="10" transform="matrix(.9848 -.1736 .1736 .9848 -139.3672 131.7417)"/><path d="m646.5 1055.9h39.3v39.3h-39.3z" stroke-linecap="round" stroke-linejoin="round" stroke-miterlimit="10" transform="matrix(.9848 -.1736 .1736 .9848 -176.6382 132.0091)"/><path d="m637.1 1002.8h39.3v39.3h-39.3z" stroke-linecap="round" stroke-linejoin="round" stroke-miterlimit="10" transform="matrix(.9848 -.1736 .1736 .9848 -167.5699 129.5793)"/><path d="m627.8 949.8h39.3v39.3h-39.3z" stroke-linecap="round" stroke-linejoin="round" stroke-miterlimit="10" transform="matrix(.9848 -.1736 .1736 .9848 -158.4811 127.1297)"/><path d="m618.4 896.7h39.3v39.3h-39.3z" stroke-linecap="round" stroke-linejoin="round" stroke-miterlimit="10" transform="matrix(.9848 -.1736 .1736 .9848 -149.4335 124.7197)"/><path d="m609.1 843.7h39.3v39.3h-39.3z" stroke-linecap="round" stroke-linejoin="round" stroke-miterlimit="10" transform="matrix(.9848 -.1736 .1736 .9848 -140.3652 122.2898)"/><path d="m591 1051.2h39.3v39.3h-39.3z" stroke-linecap="round" stroke-linejoin="round" stroke-miterlimit="10" transform="matrix(.9848 -.1736 .1736 .9848 -176.6816 122.3015)"/><path d="m581.6 998.2h39.3v39.3h-39.3z" stroke-linecap="round" stroke-linejoin="round" stroke-miterlimit="10" transform="matrix(.9848 -.1736 .1736 .9848 -167.6134 119.8717)"/><path d="m572.3 945.2h39.3v39.3h-39.3z" stroke-linecap="round" stroke-linejoin="round" stroke-miterlimit="10" transform="matrix(.9848 -.1736 .1736 .9848 -158.5452 117.4418)"/><path d="m562.9 892.1h39.3v39.3h-39.3z" stroke-linecap="round" stroke-linejoin="round" stroke-miterlimit="10" transform="matrix(.9848 -.1736 .1736 .9848 -149.4769 115.0119)"/><path d="m553.6 839.1h39.3v39.3h-39.3z" stroke-linecap="round" stroke-linejoin="round" stroke-miterlimit="10" transform="matrix(.9848 -.1736 .1736 .9848 -140.3904 112.5647)"/><path d="m540.9 1077.3h39.3v39.3h-39.3z" stroke-linecap="round" stroke-linejoin="round" stroke-miterlimit="10" transform="matrix(.9848 -.1736 .1736 .9848 -181.9751 114.0005)"/><path d="m531.5 1024.3h39.3v39.3h-39.3z" stroke-linecap="round" stroke-linejoin="round" stroke-miterlimit="10" transform="matrix(.9848 -.1736 .1736 .9848 -172.9069 111.5707)"/><path d="m522.2 971.3h39.3v39.3h-39.3z" stroke-linecap="round" stroke-linejoin="round" stroke-miterlimit="10" transform="matrix(.9848 -.1736 .1736 .9848 -163.8171 109.1236)"/><path d="m512.8 918.2h39.3v39.3h-39.3z" stroke-linecap="round" stroke-linejoin="round" stroke-miterlimit="10" transform="matrix(.9848 -.1736 .1736 .9848 -154.7704 106.7111)"/><path d="m503.5 865.2h39.3v39.3h-39.3z" stroke-linecap="round" stroke-linejoin="round" stroke-miterlimit="10" transform="matrix(.9848 -.1736 .1736 .9848 -145.7022 104.2812)"/><path d="m490.3 1100.7h39.3v39.3h-39.3z" stroke-linecap="round" stroke-linejoin="round" stroke-miterlimit="10" transform="matrix(.9848 -.1736 .1736 .9848 -186.7913 105.5717)"/><path d="m481 1047.6h39.3v39.3h-39.3z" stroke-linecap="round" stroke-linejoin="round" stroke-miterlimit="10" transform="matrix(.9848 -.1736 .1736 .9848 -177.7231 103.1419)"/><path d="m462.2 941.5h39.3v39.3h-39.3z" stroke-linecap="round" stroke-linejoin="round" stroke-miterlimit="10" transform="matrix(.9848 -.1736 .1736 .9848 -159.5866 98.2822)"/><path d="m452.9 888.5h39.3v39.3h-39.3z" stroke-linecap="round" stroke-linejoin="round" stroke-miterlimit="10" transform="matrix(.9848 -.1736 .1736 .9848 -150.5184 95.8524)"/><path d="m432.8 1083.5h39.3v39.3h-39.3z" stroke-linecap="round" stroke-linejoin="round" stroke-miterlimit="10" transform="matrix(.9848 -.1736 .1736 .9848 -184.6877 95.3317)"/><path d="m365.5 1083.5h39.3v39.3h-39.3z" stroke-linecap="round" stroke-linejoin="round" stroke-miterlimit="10" transform="matrix(.1736 -.9848 .9848 .1736 -768.1366 1290.8882)"/><path d="m308 1100.7h39.3v39.3h-39.3z" stroke-linecap="round" stroke-linejoin="round" stroke-miterlimit="10" transform="matrix(.1736 -.9848 .9848 .1736 -832.5261 1248.4708)"/><path d="m317.4 1047.6h39.3v39.3h-39.3z" stroke-linecap="round" stroke-linejoin="round" stroke-miterlimit="10" transform="matrix(.1736 -.9848 .9848 .1736 -772.5634 1213.8514)"/><path d="m326.7 994.6h39.3v39.3h-39.3z" stroke-linecap="round" stroke-linejoin="round" stroke-miterlimit="10" transform="matrix(.1736 -.9848 .9848 .1736 -712.6005 1179.2343)"/><path d="m336.1 941.6h39.3v39.3h-39.3z" stroke-linecap="round" stroke-linejoin="round" stroke-miterlimit="10" transform="matrix(.1736 -.9848 .9848 .1736 -652.6382 1144.6125)"/><path d="m345.4 888.5h39.3v39.3h-39.3z" stroke-linecap="round" stroke-linejoin="round" stroke-miterlimit="10" transform="matrix(.1736 -.9848 .9848 .1736 -592.6755 1109.9933)"/><path d="m257.4 1077.4h39.3v39.3h-39.3z" stroke-linecap="round" stroke-linejoin="round" stroke-miterlimit="10" transform="matrix(.1736 -.9848 .9848 .1736 -851.3656 1179.4001)"/><path d="m266.8 1024.3h39.3v39.3h-39.3z" stroke-linecap="round" stroke-linejoin="round" stroke-miterlimit="10" transform="matrix(.1736 -.9848 .9848 .1736 -791.4031 1144.7783)"/><path d="m276.2 971.3h39.3v39.3h-39.3z" stroke-linecap="round" stroke-linejoin="round" stroke-miterlimit="10" transform="matrix(.1736 -.9848 .9848 .1736 -731.4404 1110.1591)"/><path d="m285.5 918.2h39.3v39.3h-39.3z" stroke-linecap="round" stroke-linejoin="round" stroke-miterlimit="10" transform="matrix(.1736 -.9848 .9848 .1736 -671.4778 1075.5397)"/><path d="m294.9 865.2h39.3v39.3h-39.3z" stroke-linecap="round" stroke-linejoin="round" stroke-miterlimit="10" transform="matrix(.1736 -.9848 .9848 .1736 -611.515 1040.9221)"/><path d="m207.4 1051.3h39.3v39.3h-39.3z" stroke-linecap="round" stroke-linejoin="round" stroke-miterlimit="10" transform="matrix(.1736 -.9848 .9848 .1736 -867.0497 1108.5029)"/><path d="m216.7 998.2h39.3v39.3h-39.3z" stroke-linecap="round" stroke-linejoin="round" stroke-miterlimit="10" transform="matrix(.1736 -.9848 .9848 .1736 -807.0871 1073.8835)"/><path d="m226.1 945.2h39.3v39.3h-39.3z" stroke-linecap="round" stroke-linejoin="round" stroke-miterlimit="10" transform="matrix(.1736 -.9848 .9848 .1736 -747.1244 1039.2661)"/><path d="m235.4 892.1h39.3v39.3h-39.3z" stroke-linecap="round" stroke-linejoin="round" stroke-miterlimit="10" transform="matrix(.1736 -.9848 .9848 .1736 -687.1619 1004.6447)"/><path d="m244.8 839.1h39.3v39.3h-39.3z" stroke-linecap="round" stroke-linejoin="round" stroke-miterlimit="10" transform="matrix(.1736 -.9848 .9848 .1736 -627.1992 970.0254)"/><path d="m151.9 1055.9h39.3v39.3h-39.3z" stroke-linecap="round" stroke-linejoin="round" stroke-miterlimit="10" transform="matrix(.1736 -.9848 .9848 .1736 -917.4486 1057.6508)"/><path d="m161.2 1002.8h39.3v39.3h-39.3z" stroke-linecap="round" stroke-linejoin="round" stroke-miterlimit="10" transform="matrix(.1736 -.9848 .9848 .1736 -857.4861 1023.0334)"/><path d="m170.6 949.8h39.3v39.3h-39.3z" stroke-linecap="round" stroke-linejoin="round" stroke-miterlimit="10" transform="matrix(.1736 -.9848 .9848 .1736 -797.5235 988.4119)"/><path d="m179.9 896.7h39.3v39.3h-39.3z" stroke-linecap="round" stroke-linejoin="round" stroke-miterlimit="10" transform="matrix(.1736 -.9848 .9848 .1736 -737.5609 953.7925)"/><path d="m189.3 843.7h39.3v39.3h-39.3z" stroke-linecap="round" stroke-linejoin="round" stroke-miterlimit="10" transform="matrix(.1736 -.9848 .9848 .1736 -677.5982 919.1749)"/><path d="m97.3 1054.9h39.3v39.3h-39.3z" stroke-linecap="round" stroke-linejoin="round" stroke-miterlimit="10" transform="matrix(.1736 -.9848 .9848 .1736 -961.5368 1003.1697)"/><path d="m106.7 1001.9h39.3v39.3h-39.3z" stroke-linecap="round" stroke-linejoin="round" stroke-miterlimit="10" transform="matrix(.1736 -.9848 .9848 .1736 -901.5738 968.5473)"/><path d="m116 948.8h39.3v39.3h-39.3z" stroke-linecap="round" stroke-linejoin="round" stroke-miterlimit="10" transform="matrix(.1736 -.9848 .9848 .1736 -841.611 933.9273)"/><path d="m125.4 895.8h39.3v39.3h-39.3z" stroke-linecap="round" stroke-linejoin="round" stroke-miterlimit="10" transform="matrix(.1736 -.9848 .9848 .1736 -781.6483 899.3092)"/><path d="m134.8 842.7h39.3v39.3h-39.3z" stroke-linecap="round" stroke-linejoin="round" stroke-miterlimit="10" transform="matrix(.1736 -.9848 .9848 .1736 -721.6854 864.6872)"/><path d="m44.3 1045.5h39.3v39.3h-39.3z" stroke-linecap="round" stroke-linejoin="round" stroke-miterlimit="10" transform="matrix(.1736 -.9848 .9848 .1736 -996.1556 943.1939)"/><path d="m53.7 992.5h39.3v39.3h-39.3z" stroke-linecap="round" stroke-linejoin="round" stroke-miterlimit="10" transform="matrix(.1736 -.9848 .9848 .1736 -936.1927 908.5722)"/><path d="m63 939.5h39.3v39.3h-39.3z" stroke-linecap="round" stroke-linejoin="round" stroke-miterlimit="10" transform="matrix(.1736 -.9848 .9848 .1736 -876.23 873.9528)"/><path d="m72.4 886.4h39.3v39.3h-39.3z" stroke-linecap="round" stroke-linejoin="round" stroke-miterlimit="10" transform="matrix(.1736 -.9848 .9848 .1736 -816.2676 839.3353)"/><path d="m81.7 833.4h39.3v39.3h-39.3z" stroke-linecap="round" stroke-linejoin="round" stroke-miterlimit="10" transform="matrix(.1736 -.9848 .9848 .1736 -756.3049 804.7139)"/><path d="m471.6 994.6h39.3v39.3h-39.3z" stroke-linecap="round" stroke-linejoin="round" stroke-miterlimit="10" transform="matrix(.9848 -.1736 .1736 .9848 -168.6586 100.7165)"/></g></svg>